<?xml version="1.0" standalone="no"?>
<!DOCTYPE svg PUBLIC "-//W3C//DTD SVG 20010904//EN"
 "http://www.w3.org/TR/2001/REC-SVG-20010904/DTD/svg10.dtd">
<svg version="1.0" xmlns="http://www.w3.org/2000/svg"
 width="873.000000pt" height="263.000000pt" viewBox="0 0 873.000000 263.000000"
 preserveAspectRatio="xMidYMid meet">

<g transform="translate(0.000000,263.000000) scale(0.100000,-0.100000)"
fill="#000000" stroke="none">
<path d="M880 2500 c-47 -7 -60 -14 -90 -49 -36 -41 -73 -61 -115 -61 -18 0
-35 -15 -63 -52 -22 -29 -52 -64 -66 -78 -25 -22 -29 -23 -59 -11 -53 22 -69
19 -92 -17 -11 -18 -37 -54 -57 -78 -45 -53 -47 -75 -12 -103 48 -38 72 -29
154 59 66 71 79 80 110 80 69 0 100 -49 66 -103 -21 -33 -4 -64 46 -86 34 -14
50 -30 72 -71 l28 -52 -7 -138 c-5 -113 -4 -149 9 -193 21 -73 35 -83 88 -68
36 11 44 11 66 -6 43 -32 65 -88 70 -177 3 -73 1 -85 -20 -116 -42 -62 -55
-55 -166 87 -103 132 -138 170 -148 160 -13 -12 12 -53 115 -190 124 -165 115
-133 127 -443 8 -192 2 -222 -49 -272 -32 -31 -32 -31 -156 -34 -94 -2 -125
-6 -129 -16 -2 -8 62 -80 150 -168 l154 -154 101 0 102 0 96 97 c118 117 197
211 190 224 -4 5 -65 9 -137 9 -116 0 -133 2 -159 21 -60 43 -63 57 -55 333 6
245 7 249 31 278 14 16 25 39 25 51 0 33 76 111 98 101 30 -14 87 -6 158 22
119 47 184 34 184 -37 0 -42 22 -54 73 -40 66 19 81 35 79 82 -3 38 1 44 68
108 81 77 89 107 44 160 -51 61 -104 33 -153 -81 -18 -43 -26 -50 -104 -87
-46 -23 -91 -41 -101 -41 -9 0 -34 -9 -56 -20 -49 -25 -98 -26 -116 -3 -11 16
-16 17 -46 4 -84 -34 -117 -21 -92 38 14 33 15 34 59 27 43 -5 48 -3 91 36 44
41 46 41 77 28 18 -7 52 -15 77 -17 40 -4 50 0 93 33 26 20 47 44 47 53 0 9
-21 34 -46 56 -34 30 -46 48 -46 68 0 67 62 76 159 22 78 -43 106 -44 144 -6
51 52 45 62 -133 226 -72 66 -103 129 -79 159 11 13 17 13 47 -1 71 -35 121
35 53 76 -16 10 -57 55 -90 99 -58 79 -151 167 -209 197 -39 20 -65 19 -135
-5 -32 -11 -67 -20 -77 -20 -10 0 -40 20 -66 44 -72 67 -98 73 -222 56z m6
-364 c15 -12 19 -27 19 -78 l0 -63 50 -10 c36 -8 53 -18 61 -34 26 -51 -8 -81
-92 -81 -35 0 -50 5 -68 25 -44 48 -63 200 -29 237 19 22 33 23 59 4z m319
-238 c5 -20 13 -40 17 -44 5 -4 32 10 62 30 59 40 100 45 120 14 16 -26 -3
-49 -50 -63 -50 -14 -55 -46 -8 -55 45 -10 52 -16 83 -78 41 -82 54 -133 38
-150 -21 -21 -46 -3 -74 52 -29 58 -38 66 -75 66 -32 0 -46 -23 -72 -111 -22
-77 -58 -108 -86 -74 -10 12 -8 26 14 75 37 81 33 119 -13 135 -50 16 -57 34
-38 84 13 30 14 47 7 61 -25 46 -3 103 38 98 21 -2 29 -11 37 -40z m-110 -253
c30 -29 33 -76 10 -152 -29 -98 -62 -93 -95 14 -23 74 -26 133 -8 151 20 20
67 14 93 -13z"/>
<path d="M2246 2214 c-13 -34 -7 -44 29 -44 41 0 41 1 15 -110 -11 -47 -22
-95 -25 -107 -5 -20 -1 -23 24 -23 28 0 29 2 51 98 12 53 24 107 27 120 4 18
12 22 43 22 37 0 50 12 50 46 0 22 -205 20 -214 -2z"/>
<path d="M2516 2222 c-5 -9 -66 -268 -66 -283 0 -6 12 -9 27 -7 24 3 28 9 41
66 l13 62 50 0 c55 0 55 0 35 -77 l-14 -53 28 0 c33 0 30 -8 65 150 14 63 28
123 31 133 4 13 -1 17 -24 17 -28 0 -31 -4 -43 -57 l-14 -58 -49 -3 -49 -3 7
38 c3 21 9 48 12 61 5 19 2 22 -19 22 -14 0 -28 -4 -31 -8z"/>
<path d="M2795 2208 c-3 -13 -16 -72 -30 -133 -14 -60 -28 -118 -31 -128 -5
-16 2 -17 98 -15 98 3 103 4 106 25 3 21 -1 22 -65 25 l-68 3 4 30 c1 17 5 33
8 38 2 4 33 7 69 7 62 0 64 1 64 25 0 24 -3 25 -61 25 -52 0 -60 2 -55 16 3 9
6 22 6 30 0 11 16 14 69 14 54 0 70 4 75 16 16 41 10 44 -89 44 -90 0 -95 -1
-100 -22z"/>
<path d="M580 1910 c-26 -62 -95 -78 -121 -27 -12 22 -28 37 -41 37 -4 0 -17
-18 -28 -41 -21 -41 -21 -41 -73 -38 -63 4 -77 -3 -77 -42 0 -16 -7 -45 -14
-64 -15 -35 -15 -35 -80 -35 -78 0 -83 -11 -29 -56 l37 -31 -22 -37 c-30 -51
-28 -66 8 -66 93 0 133 -92 70 -163 -17 -19 -30 -44 -30 -56 0 -19 6 -21 53
-21 30 -1 60 -7 71 -15 27 -20 50 -19 71 4 9 11 33 21 53 23 19 2 37 8 39 13
2 6 -21 24 -50 42 -104 62 -111 95 -23 122 25 8 45 18 44 23 -2 4 -23 18 -48
30 -39 20 -45 28 -48 58 -5 65 83 159 131 141 20 -8 22 -14 19 -78 -4 -91 4
-98 102 -90 65 6 75 4 91 -13 42 -47 70 -7 62 89 -5 70 -5 70 -97 139 -35 27
-39 64 -12 111 20 35 9 64 -25 69 -15 2 -24 -6 -33 -28z"/>
<path d="M5534 1826 c-201 -46 -334 -212 -334 -414 0 -81 22 -134 73 -178 59
-52 120 -67 261 -62 110 3 127 7 188 35 77 36 148 98 185 160 61 104 80 249
44 329 -22 49 -87 106 -138 123 -60 19 -209 23 -279 7z m191 -120 c87 -37 104
-159 39 -287 -78 -155 -323 -191 -384 -57 -25 55 -25 80 1 163 24 78 76 142
142 174 51 24 151 28 202 7z"/>
<path d="M2376 1803 c-3 -10 -35 -148 -71 -308 -36 -159 -68 -296 -70 -302 -3
-10 16 -13 74 -13 l77 0 54 238 c29 130 56 246 60 257 4 10 10 -41 14 -115 3
-74 9 -190 12 -258 l7 -123 81 3 81 3 127 250 c70 138 127 245 128 239 0 -6
-25 -117 -55 -248 -30 -130 -55 -239 -55 -242 0 -3 34 -4 77 -2 l76 3 67 290
c37 160 70 302 73 318 l7 27 -119 0 -120 0 -77 -152 c-42 -84 -100 -196 -128
-248 l-51 -95 -12 200 c-6 110 -12 221 -12 248 l-1 47 -119 0 c-105 0 -120 -2
-125 -17z"/>
<path d="M3182 1508 c-40 -172 -72 -316 -72 -321 0 -4 131 -6 292 -5 l291 3
13 55 c7 30 13 56 14 58 0 1 -94 2 -210 2 -140 0 -210 3 -210 11 0 5 7 41 16
80 l16 69 188 0 187 0 7 39 c3 22 9 46 12 55 5 14 -14 16 -181 16 l-187 0 7
33 c4 17 11 49 16 70 l10 37 203 0 204 0 5 29 c3 16 9 40 13 55 l6 26 -284 0
-285 0 -71 -312z"/>
<path d="M3861 1776 c-6 -25 -11 -50 -11 -55 0 -7 41 -11 115 -11 63 0 115 -4
115 -8 0 -8 -108 -476 -116 -504 -5 -16 3 -18 80 -18 47 0 86 3 86 6 0 7 109
481 116 507 5 15 20 17 123 17 l119 0 5 29 c3 16 9 40 13 55 l6 26 -320 0
-320 0 -11 -44z"/>
<path d="M4496 1518 c-38 -167 -71 -311 -74 -320 -4 -16 4 -18 77 -18 75 0 81
1 86 23 3 12 16 67 29 122 l23 100 117 0 c106 0 119 -2 132 -20 10 -12 13 -31
10 -50 -3 -16 -9 -63 -12 -102 l-7 -73 92 0 c92 0 109 8 80 37 -8 8 -7 30 5
81 23 104 21 129 -14 162 l-30 28 30 12 c43 18 97 82 110 130 19 71 -7 132
-73 168 -27 14 -67 17 -272 20 l-240 3 -69 -303z m448 182 c39 -14 51 -49 33
-93 -24 -57 -57 -68 -195 -65 l-117 3 19 83 18 82 108 0 c60 0 120 -4 134 -10z"/>
<path d="M6115 1808 c-2 -7 -33 -143 -70 -303 -36 -159 -68 -298 -71 -307 -5
-17 13 -18 274 -18 l280 0 11 50 c6 28 11 55 11 60 0 6 -83 11 -193 12 l-193
3 58 250 c32 138 58 253 58 258 0 13 -160 8 -165 -5z"/>
<path d="M6729 1813 c0 -5 -33 -147 -73 -318 l-72 -310 79 -3 c44 -2 81 -1 82
0 5 4 145 614 145 627 0 12 -160 16 -161 4z"/>
<path d="M7005 1808 c-2 -7 -34 -143 -70 -303 -36 -159 -68 -298 -71 -308 -5
-16 1 -18 73 -15 l78 3 50 217 c27 120 53 214 57 210 4 -4 52 -101 107 -217
l100 -210 83 -3 84 -3 69 303 c37 167 70 311 73 321 4 15 -4 17 -71 17 -63 0
-77 -3 -81 -17 -3 -10 -26 -105 -50 -211 -25 -107 -46 -196 -49 -198 -2 -2
-49 91 -105 208 l-100 213 -86 3 c-64 2 -87 -1 -91 -10z"/>
<path d="M7770 1505 c-115 -173 -210 -317 -210 -320 0 -3 37 -5 83 -5 l82 0
43 65 42 65 144 0 145 0 6 -53 c4 -30 10 -59 14 -66 5 -8 35 -11 93 -9 l84 3
-64 318 -65 317 -94 0 -93 0 -210 -315z m289 36 c10 -61 15 -113 13 -116 -10
-10 -182 -5 -182 5 0 14 141 232 147 226 2 -2 12 -54 22 -115z"/>
<path d="M502 1428 c-17 -17 -15 -55 4 -62 9 -4 32 -4 50 0 27 5 37 2 57 -20
30 -32 47 -33 47 -3 0 65 -116 127 -158 85z"/>
<path d="M3772 1049 c-55 -28 -84 -70 -90 -129 -6 -63 14 -83 112 -111 81 -23
95 -39 71 -75 -17 -27 -47 -37 -96 -32 -27 2 -37 10 -49 36 -13 29 -19 32 -50
30 -28 -2 -36 -8 -38 -26 -12 -81 73 -132 182 -111 88 16 146 81 146 162 0 46
-30 71 -110 93 -74 20 -90 29 -90 54 0 62 131 76 146 15 5 -21 12 -25 45 -25
38 0 39 1 39 35 0 24 -9 44 -29 67 -24 27 -36 32 -87 35 -46 3 -68 -1 -102
-18z"/>
<path d="M6092 1059 c-49 -15 -116 -86 -140 -152 -73 -194 -2 -311 165 -277
111 23 193 145 193 286 0 77 -19 116 -66 139 -35 17 -101 18 -152 4z m112 -85
c35 -35 33 -112 -4 -190 -56 -115 -190 -111 -190 6 0 110 63 200 140 200 22 0
45 -7 54 -16z"/>
<path d="M2295 1048 c-3 -7 -23 -92 -45 -188 -22 -96 -42 -185 -45 -197 l-5
-23 140 0 c105 0 140 3 140 13 0 6 3 22 6 35 6 22 5 22 -91 22 -96 0 -97 0
-91 23 33 132 72 318 68 322 -11 10 -73 5 -77 -7z"/>
<path d="M2702 1028 c-39 -66 -212 -378 -212 -383 0 -4 19 -5 43 -3 37 3 44 7
62 40 l20 38 73 0 72 0 0 -40 0 -40 45 0 c25 0 45 4 45 8 0 15 -30 327 -36
370 l-5 42 -44 0 c-38 0 -46 -4 -63 -32z m47 -180 l1 -58 -45 0 c-25 0 -45 2
-45 5 0 2 17 39 37 80 43 85 50 81 52 -27z"/>
<path d="M2971 1023 c-5 -21 -22 -90 -36 -153 -15 -63 -32 -141 -40 -172 l-13
-58 38 0 39 0 32 140 c18 78 36 135 40 128 3 -7 23 -70 44 -140 l38 -128 43 0
c24 0 44 2 44 5 0 3 20 92 45 197 25 106 45 198 45 205 0 8 -13 13 -35 13 -39
0 -37 4 -77 -172 -12 -54 -24 -98 -27 -98 -4 0 -24 60 -46 133 l-40 132 -42 3
c-41 3 -42 2 -52 -35z"/>
<path d="M3345 1038 c-3 -13 -23 -101 -45 -197 -22 -96 -40 -180 -40 -187 0
-11 24 -14 108 -14 94 0 112 3 146 23 72 44 126 156 126 261 0 106 -43 136
-192 136 -93 0 -98 -1 -103 -22z m199 -80 c20 -28 20 -48 -1 -121 -10 -37 -28
-72 -48 -93 -29 -31 -37 -34 -89 -34 -50 0 -57 2 -52 18 7 23 56 239 56 246 0
3 27 6 59 6 51 0 62 -3 75 -22z"/>
<path d="M4125 1037 c-107 -60 -172 -269 -112 -358 58 -87 210 -65 280 40 35
53 34 61 -7 61 -26 0 -43 -9 -74 -40 -57 -57 -110 -52 -131 13 -9 25 -8 46 4
91 19 73 27 88 66 120 49 42 102 31 122 -26 5 -13 17 -18 48 -18 l42 0 -6 43
c-4 30 -14 50 -37 70 -26 23 -39 27 -93 27 -46 0 -72 -6 -102 -23z"/>
<path d="M4536 1038 c-27 -44 -206 -365 -212 -382 -5 -13 1 -16 35 -16 37 0
42 3 61 40 l20 40 75 0 75 0 0 -40 0 -40 45 0 c25 0 45 1 45 3 0 1 -9 92 -20
202 -11 110 -20 203 -20 208 0 4 -20 7 -45 7 -35 0 -47 -5 -59 -22z m43 -210
l1 -38 -45 0 c-25 0 -45 3 -45 8 0 4 17 39 37 79 l38 72 7 -42 c3 -23 7 -59 7
-79z"/>
<path d="M4806 1043 c-3 -10 -23 -99 -46 -198 -22 -99 -43 -186 -45 -192 -3
-9 9 -13 39 -13 43 0 44 1 50 38 4 20 12 54 17 75 l10 37 68 0 c54 0 75 5 102
23 40 26 66 75 75 138 5 39 3 49 -19 75 -25 28 -28 29 -135 32 -100 3 -111 2
-116 -15z m182 -100 c5 -49 -33 -83 -93 -83 -50 0 -50 -1 -33 70 l12 51 55 -3
c55 -3 56 -4 59 -35z"/>
<path d="M5150 1054 c0 -4 -20 -93 -45 -200 -25 -106 -45 -197 -45 -203 0 -7
48 -11 145 -11 109 0 145 3 145 13 0 6 3 22 6 35 6 22 5 22 -96 22 l-102 0 7
48 c4 26 9 50 12 55 2 4 44 7 93 7 94 0 94 0 104 43 l6 27 -90 0 c-97 0 -96
-1 -84 59 l7 31 102 0 103 0 6 31 c3 17 6 35 6 40 0 5 -63 9 -140 9 -77 0
-140 -3 -140 -6z"/>
<path d="M5686 1037 c-81 -46 -136 -154 -136 -265 0 -132 110 -188 232 -119
34 19 98 96 98 119 0 4 -16 8 -35 8 -29 0 -43 -8 -74 -40 -43 -45 -75 -51
-112 -21 -48 39 -20 182 47 241 19 16 45 30 57 30 31 0 67 -27 67 -51 0 -16 7
-19 45 -19 39 0 45 3 45 20 0 33 -26 86 -51 104 -36 25 -134 21 -183 -7z"/>
<path d="M6395 1048 c-3 -7 -23 -92 -45 -188 -22 -96 -42 -185 -45 -197 -5
-21 -2 -23 33 -23 l39 0 34 153 34 152 3 -153 3 -153 40 3 41 3 69 155 c37 85
68 152 69 148 0 -7 -58 -262 -66 -290 -4 -15 1 -18 35 -18 23 0 41 3 41 6 0 3
20 93 45 201 25 107 45 199 45 204 0 5 -25 9 -55 9 -63 0 -53 14 -146 -195
l-59 -130 0 163 0 162 -55 0 c-35 0 -57 -5 -60 -12z"/>
<path d="M6826 1043 c-3 -10 -23 -99 -46 -198 -22 -99 -43 -186 -45 -192 -3
-9 9 -13 39 -13 43 0 44 1 50 38 4 20 12 54 17 75 l10 37 68 0 c54 0 75 5 102
23 40 26 70 82 76 141 4 35 1 48 -20 72 -25 28 -28 29 -135 32 -100 3 -111 2
-116 -15z m182 -100 c5 -49 -33 -83 -93 -83 -50 0 -50 -1 -33 70 l12 51 55 -3
c55 -3 56 -4 59 -35z"/>
<path d="M7137 873 c-57 -104 -110 -198 -116 -210 -11 -22 -10 -23 32 -23 42
0 45 2 62 40 l18 40 74 0 73 0 0 -40 0 -40 45 0 c35 0 45 4 45 17 0 28 -31
357 -36 381 -4 19 -11 22 -48 22 l-44 0 -105 -187z m133 -8 l0 -75 -45 0 c-25
0 -45 3 -45 6 0 13 75 144 82 144 4 0 8 -34 8 -75z"/>
<path d="M7470 923 c-18 -76 -40 -171 -50 -210 l-18 -73 39 0 c44 0 36 -17 79
169 15 63 29 111 32 105 2 -5 22 -69 44 -141 l38 -133 42 0 c32 0 44 4 48 18
12 41 86 372 86 386 0 12 -10 16 -34 16 -40 0 -34 12 -72 -158 -15 -67 -31
-119 -34 -115 -4 5 -24 68 -45 141 l-38 132 -43 0 -42 0 -32 -137z"/>
<path d="M7844 1043 c67 -228 70 -243 58 -301 -7 -32 -15 -67 -18 -79 -6 -21
-3 -23 34 -23 39 0 42 2 52 38 5 20 13 53 16 73 4 23 39 80 100 165 52 71 94
132 94 136 0 5 -19 8 -42 8 -43 0 -43 0 -103 -91 -67 -103 -58 -106 -85 29
l-13 62 -49 0 c-42 0 -49 -3 -44 -17z"/>
<path d="M1485 432 c-33 -31 -120 -114 -193 -185 l-134 -127 3761 0 3761 0 0
185 0 185 -3567 0 -3568 0 -60 -58z"/>
<path d="M0 300 l0 -180 407 0 407 0 -64 68 c-36 37 -114 118 -175 180 l-110
112 -232 0 -233 0 0 -180z"/>
</g>
</svg>
